<svg width="34" height="33" viewBox="0 0 34 33" fill="none" xmlns="http://www.w3.org/2000/svg">
<path d="M20.2902 12.499V6.71806C20.2902 5.56816 19.8085 4.46536 18.951 3.65225C18.0934 2.83915 16.9304 2.38235 15.7177 2.38235L9.62093 15.3895V31.2871H26.8137C27.5489 31.295 28.2623 31.0506 28.8225 30.5991C29.3826 30.1477 29.7519 29.5194 29.8621 28.8302L31.9655 15.823C32.0318 15.4088 32.0023 14.9858 31.8791 14.5834C31.7559 14.181 31.5419 13.8088 31.2519 13.4926C30.962 13.1764 30.603 12.9238 30.1998 12.7522C29.7967 12.5807 29.359 12.4943 28.9171 12.499H20.2902ZM9.62093 31.2871H5.04837C4.23989 31.2871 3.46453 30.9825 2.89285 30.4405C2.32117 29.8984 2 29.1632 2 28.3966V18.2799C2 17.5133 2.32117 16.7781 2.89285 16.2361C3.46453 15.694 4.23989 15.3895 5.04837 15.3895H9.62093" fill="#3D7D7D"/>
<path d="M9.62093 15.3895L15.7177 2.38235C16.9304 2.38235 18.0934 2.83915 18.951 3.65225C19.8085 4.46536 20.2902 5.56816 20.2902 6.71806V12.499H28.9171C29.359 12.4943 29.7967 12.5807 30.1998 12.7522C30.603 12.9238 30.962 13.1764 31.2519 13.4926C31.5419 13.8088 31.7559 14.181 31.8791 14.5834C32.0023 14.9858 32.0318 15.4088 31.9655 15.823L29.8621 28.8302C29.7519 29.5194 29.3826 30.1477 28.8225 30.5991C28.2623 31.0506 27.5489 31.295 26.8137 31.2871H9.62093M9.62093 15.3895V31.2871M9.62093 15.3895H5.04837C4.23989 15.3895 3.46453 15.694 2.89285 16.2361C2.32117 16.7781 2 17.5133 2 18.2799V28.3966C2 29.1632 2.32117 29.8984 2.89285 30.4405C3.46453 30.9825 4.23989 31.2871 5.04837 31.2871H9.62093" stroke="white" stroke-width="3" stroke-linecap="round" stroke-linejoin="round"/>
</svg>
